# Rhino

g object_1
v -58.35791778564453 -18.32500076293945 -108.9327850341797
v -58.35791778564453 -18.32500076293945 -168.4483032226562
v -58.35791778564453 -18.32500076293945 -227.9638214111328
v -86.51610565185547 -18.32500076293945 -228.3651275634766
v -114.6743011474609 -18.32500076293945 -228.7664489746094
v -142.8324890136719 -18.32500076293945 -229.1677703857422
v -143.9883575439453 -18.32500076293945 -228.9539184570312
v -144.9733428955078 -18.32500076293945 -228.3123626708984
v -145.6361846923828 -18.32500076293945 -227.3415985107422
v -145.8751525878906 -18.32500076293945 -226.1906433105469
v -146.3100738525391 -18.32500076293945 -168.3859100341797
v -146.7449951171875 -18.32500076293945 -110.581184387207
v -117.2826385498047 -18.32500076293945 -110.0317153930664
v -87.82027435302734 -18.32500076293945 -109.4822540283203
v -58.35791778564453 0 -227.9638214111328
v -86.51610565185547 0 -228.3651275634766
v -114.6743011474609 0 -228.7664489746094
v -142.8324890136719 0 -229.1677703857422
v -143.9883575439453 0 -228.9539184570312
v -144.9733428955078 0 -228.3123626708984
v -145.6361846923828 0 -227.3415985107422
v -145.8751525878906 0 -226.1906433105469
v -146.3100738525391 0 -168.3859100341797
v -146.7449951171875 0 -110.581184387207
v -117.2826385498047 0 -110.0317153930664
v -87.82027435302734 0 -109.4822540283203
v -58.35791778564453 0 -108.9327850341797
v -58.35791778564453 0 -168.4483032226562
v -58.35791778564453 0 -227.9638214111328
v -58.35791778564453 -18.32500076293945 -227.9638214111328
v -58.35791778564453 0 -108.9327850341797
v -58.35791778564453 -18.32500076293945 -108.9327850341797
v -58.35791778564453 0 -168.4483032226562
v -58.35791778564453 -18.32500076293945 -168.4483032226562
v -142.8324890136719 0 -229.1677703857422
v -142.8324890136719 -18.32500076293945 -229.1677703857422
v -58.35791778564453 0 -227.9638214111328
v -58.35791778564453 -18.32500076293945 -227.9638214111328
v -114.6743011474609 0 -228.7664489746094
v -86.51610565185547 0 -228.3651275634766
v -86.51610565185547 -18.32500076293945 -228.3651275634766
v -114.6743011474609 -18.32500076293945 -228.7664489746094
v -145.8751525878906 0 -226.1906433105469
v -145.8751525878906 -18.32500076293945 -226.1906433105469
v -145.6361846923828 0 -227.3415985107422
v -145.6361846923828 -18.32500076293945 -227.3415985107422
v -144.9733428955078 0 -228.3123626708984
v -144.9733428955078 -18.32500076293945 -228.3123626708984
v -143.9883575439453 0 -228.9539184570312
v -143.9883575439453 -18.32500076293945 -228.9539184570312
v -142.8324890136719 0 -229.1677703857422
v -142.8324890136719 -18.32500076293945 -229.1677703857422
v -146.7449951171875 0 -110.581184387207
v -146.7449951171875 -18.32500076293945 -110.581184387207
v -145.8751525878906 0 -226.1906433105469
v -145.8751525878906 -18.32500076293945 -226.1906433105469
v -146.3100738525391 0 -168.3859100341797
v -146.3100738525391 -18.32500076293945 -168.3859100341797
v -58.35791778564453 0 -108.9327850341797
v -58.35791778564453 -18.32500076293945 -108.9327850341797
v -146.7449951171875 0 -110.581184387207
v -146.7449951171875 -18.32500076293945 -110.581184387207
v -87.82027435302734 0 -109.4822540283203
v -117.2826385498047 0 -110.0317153930664
v -117.2826385498047 -18.32500076293945 -110.0317153930664
v -87.82027435302734 -18.32500076293945 -109.4822540283203
vt 0.9928988814353943 0.7845597267150879
vt 0.7139480710029602 0.7845597267150879
vt 0.4349973201751709 0.7845597267150879
vt 0.4331163167953491 0.6527027487754822
vt 0.4312353432178497 0.5208458304405212
vt 0.429354339838028 0.3889889121055603
vt 0.4303566217422485 0.3835762739181519
vt 0.4333636462688446 0.3789638876914978
vt 0.4379136860370636 0.3758599460124969
vt 0.4433082044124603 0.3747409284114838
vt 0.7142404913902283 0.3727043271064758
vt 0.9851728081703186 0.3706677258014679
vt 0.9877481460571289 0.508631706237793
vt 0.990323543548584 0.6465957164764404
vt 0.4180308878421783 0.5649737119674683
vt 0.2861739695072174 0.5668595433235168
vt 0.1543170213699341 0.5687453150749207
vt 0.0224600937217474 0.5706310868263245
vt 0.0170474536716938 0.5696262121200562
vt 0.01243508420884609 0.5666115880012512
vt 0.009331125766038895 0.562049925327301
vt 0.008212131448090076 0.556641697883606
vt 0.006175525486469269 0.2850190401077271
vt 0.004138919990509748 0.01339640468358994
vt 0.142102912068367 0.01081448327749968
vt 0.2800669074058533 0.008232562802731991
vt 0.4180308878421783 0.005650640930980444
vt 0.4180308878421783 0.2853122055530548
vt 0.4236346781253815 0.280420184135437
vt 0.4236346781253815 0.3650639653205872
vt 0.9829577803611755 0.280420184135437
vt 0.9829577803611755 0.3650639653205872
vt 0.7032962441444397 0.280420184135437
vt 0.7032962441444397 0.3650639653205872
vt 0.4236346781253815 0.1943115890026093
vt 0.4236346781253815 0.278955340385437
vt 0.8206183314323425 0.1943115890026093
vt 0.8206183314323425 0.278955340385437
vt 0.5559625625610352 0.1943115890026093
vt 0.6882904767990112 0.1943115890026093
vt 0.6882904767990112 0.278955340385437
vt 0.5559625625610352 0.278955340385437
vt 0.5097432732582092 0.1722172200679779
vt 0.4236346781253815 0.1722172200679779
vt 0.5097432732582092 0.1773746013641357
vt 0.4236346781253815 0.1773746013641357
vt 0.5097432732582092 0.1825319826602936
vt 0.4236346781253815 0.1825319826602936
vt 0.5097432732582092 0.1876893639564514
vt 0.4236346781253815 0.1876893639564514
vt 0.5097432732582092 0.1928467452526093
vt 0.4236346781253815 0.1928467452526093
vt 0.4236346781253815 0.08610861003398895
vt 0.4236346781253815 0.1707523763179779
vt 0.9668952822685242 0.08610861003398895
vt 0.9668952822685242 0.1707523763179779
vt 0.695264995098114 0.08610861003398895
vt 0.695264995098114 0.1707523763179779
vt 0.4236346781253815 0
vt 0.4236346781253815 0.08464376628398895
vt 0.8390349745750427 0
vt 0.8390349745750427 0.08464376628398895
vt 0.562101423740387 0
vt 0.7005681991577148 0
vt 0.7005681991577148 0.08464376628398895
vt 0.562101423740387 0.08464376628398895
vn 0 -1 0
vn 0 -1 0
vn 0 -1 0
vn 0 -1 0
vn 0 -1 0
vn 0 -1 0
vn 0 -1 0
vn 0 -1 0
vn 0 -1 0
vn 0 -1 0
vn 0 -1 0
vn 0 -1 0
vn 0 -1 0
vn 0 -1 0
vn 0 1 0
vn 0 1 0
vn 0 1 0
vn 0 1 0
vn 0 1 0
vn 0 1 0
vn 0 1 0
vn 0 1 0
vn 0 1 0
vn 0 1 0
vn 0 1 0
vn 0 1 0
vn 0 1 0
vn 0 1 0
vn 1 0 -1.887379141862766e-15
vn 1 0 -1.887379141862766e-15
vn 1 0 -1.887379141862766e-15
vn 1 0 -1.887379141862766e-15
vn 1 0 -1.910204985725375e-15
vn 1 0 -1.910204985725375e-15
vn 0.01425083354115486 0 -0.9998984336853027
vn 0.01425083354115486 0 -0.9998984336853027
vn 0.01425083354115486 0 -0.9998984336853027
vn 0.01425083354115486 0 -0.9998984336853027
vn 0.01425083354115486 0 -0.9998984336853027
vn 0.01425083354115486 0 -0.9998984336853027
vn 0.01425083354115486 0 -0.9998984336853027
vn 0.01425083354115486 0 -0.9998984336853027
vn -0.9999716877937317 0 -0.007523910142481327
vn -0.9999716877937317 0 -0.007523910142481327
vn -0.9203175902366638 0 -0.3911720514297485
vn -0.9203175902366638 0 -0.3911720514297485
vn -0.6993663311004639 0 -0.7147634029388428
vn -0.6993663311004639 0 -0.7147634029388428
vn -0.3710408508777618 0 -0.9286165237426758
vn -0.3710408508777618 0 -0.9286165237426758
vn 0.01425083354115486 0 -0.9998984336853027
vn 0.01425083354115486 0 -0.9998984336853027
vn -0.9999716877937317 0 -0.007523726671934128
vn -0.9999716877937317 0 -0.007523726671934128
vn -0.9999716877937317 0 -0.007523726671934128
vn -0.9999716877937317 0 -0.007523726671934128
vn -0.9999716877937317 0 -0.007523726671934128
vn -0.9999716877937317 0 -0.007523726671934128
vn -0.01864650659263134 0 0.9998261332511902
vn -0.01864650659263134 0 0.9998261332511902
vn -0.01864650659263134 0 0.9998261332511902
vn -0.01864650659263134 0 0.9998261332511902
vn -0.01864650659263134 0 0.9998261332511902
vn -0.01864650659263134 0 0.9998261332511902
vn -0.01864650659263134 0 0.9998261332511902
vn -0.01864650659263134 0 0.9998261332511902
f 11/11/11 10/10/10 5/5/5
f 5/5/5 10/10/10 6/6/6
f 8/8/8 10/10/10 9/9/9
f 7/7/7 10/10/10 8/8/8
f 7/7/7 6/6/6 10/10/10
f 13/13/13 12/12/12 11/11/11
f 2/2/2 1/1/1 14/14/14
f 2/2/2 14/14/14 13/13/13
f 2/2/2 5/5/5 4/4/4
f 4/4/4 3/3/3 2/2/2
f 5/5/5 2/2/2 11/11/11
f 13/13/13 11/11/11 2/2/2
f 23/23/23 17/17/17 22/22/22
f 17/17/17 18/18/18 22/22/22
f 20/20/20 21/21/21 22/22/22
f 19/19/19 20/20/20 22/22/22
f 19/19/19 22/22/22 18/18/18
f 25/25/25 23/23/23 24/24/24
f 28/28/28 26/26/26 27/27/27
f 28/28/28 25/25/25 26/26/26
f 28/28/28 16/16/16 17/17/17
f 16/16/16 28/28/28 15/15/15
f 17/17/17 23/23/23 28/28/28
f 25/25/25 28/28/28 23/23/23
f 30/30/30 29/29/29 33/33/33 34/34/34
f 31/31/31 32/32/32 34/34/34 33/33/33
f 35/35/35 39/39/39 42/42/42 36/36/36
f 41/41/41 42/42/42 39/39/39 40/40/40
f 37/37/37 38/38/38 41/41/41 40/40/40
f 45/45/45 46/46/46 44/44/44 43/43/43
f 46/46/46 45/45/45 47/47/47 48/48/48
f 51/51/51 52/52/52 50/50/50 49/49/49
f 49/49/49 50/50/50 48/48/48 47/47/47
f 58/58/58 54/54/54 53/53/53 57/57/57
f 57/57/57 55/55/55 56/56/56 58/58/58
f 63/63/63 66/66/66 60/60/60 59/59/59
f 66/66/66 63/63/63 64/64/64 65/65/65
f 61/61/61 62/62/62 65/65/65 64/64/64
