# Rhino

g object_1
v 281.4973754882812 0 -499.1655578613281
v 281.4973754882812 17 -499.1655578613281
v 302.7807922363281 0 -499.1655578613281
v 302.7807922363281 17 -499.1655578613281
v 281.4973754882812 0 -530.2720947265625
v 281.4973754882812 17 -530.2720947265625
v 281.4973754882812 0 -499.1655578613281
v 281.4973754882812 17 -499.1655578613281
v 281.4973754882812 17 -499.1655578613281
v 281.4973754882812 17 -530.2720947265625
v 302.7807922363281 17 -499.1655578613281
v 302.7807922363281 17 -530.2720947265625
v 302.7807922363281 0 -499.1655578613281
v 302.7807922363281 17 -499.1655578613281
v 302.7807922363281 0 -530.2720947265625
v 302.7807922363281 17 -530.2720947265625
v 302.7807922363281 0 -530.2720947265625
v 302.7807922363281 17 -530.2720947265625
v 281.4973754882812 0 -530.2720947265625
v 281.4973754882812 17 -530.2720947265625
v 281.4973754882812 0 -499.1655578613281
v 281.4973754882812 0 -530.2720947265625
v 302.7807922363281 0 -499.1655578613281
v 302.7807922363281 0 -530.2720947265625
vt 0 0
vt 0 1
vt 1 0
vt 1 1
vt 0 0
vt 0 1
vt 1 0
vt 1 1
vt 0 0
vt 0 1
vt 1 0
vt 1 1
vt 0 0
vt 0 1
vt 1 0
vt 1 1
vt 0 0
vt 0 1
vt 1 0
vt 1 1
vt 0 0
vt 0 1
vt 1 0
vt 1 1
vn 0 0 1
vn 0 0 1
vn 0 0 1
vn 0 0 1
vn -1 0 0
vn -1 0 0
vn -1 0 0
vn -1 0 0
vn 0 1 0
vn 0 1 0
vn 0 1 0
vn 0 1 0
vn 1 0 0
vn 1 0 0
vn 1 0 0
vn 1 0 0
vn 0 0 -1
vn 0 0 -1
vn 0 0 -1
vn 0 0 -1
vn 0 -1 0
vn 0 -1 0
vn 0 -1 0
vn 0 -1 0
f 4/4/4 2/2/2 1/1/1 3/3/3
f 8/8/8 6/6/6 5/5/5 7/7/7
f 12/12/12 10/10/10 9/9/9 11/11/11
f 16/16/16 14/14/14 13/13/13 15/15/15
f 20/20/20 18/18/18 17/17/17 19/19/19
f 24/24/24 23/23/23 21/21/21 22/22/22
g object_2
v 233.6915130615234 0 -491.1979370117188
v 233.6915130615234 36 -491.1979370117188
v 268.9456176757812 0 -491.1979370117188
v 268.9456176757812 36 -491.1979370117188
v 233.6915130615234 0 -536.275146484375
v 233.6915130615234 36 -536.275146484375
v 233.6915130615234 0 -491.1979370117188
v 233.6915130615234 36 -491.1979370117188
v 233.6915130615234 36 -491.1979370117188
v 233.6915130615234 36 -536.275146484375
v 268.9456176757812 36 -491.1979370117188
v 268.9456176757812 36 -536.275146484375
v 268.9456176757812 0 -491.1979370117188
v 268.9456176757812 36 -491.1979370117188
v 268.9456176757812 0 -536.275146484375
v 268.9456176757812 36 -536.275146484375
v 268.9456176757812 0 -536.275146484375
v 268.9456176757812 36 -536.275146484375
v 233.6915130615234 0 -536.275146484375
v 233.6915130615234 36 -536.275146484375
v 233.6915130615234 0 -491.1979370117188
v 233.6915130615234 0 -536.275146484375
v 268.9456176757812 0 -491.1979370117188
v 268.9456176757812 0 -536.275146484375
vt 0 0
vt 0 1
vt 1 0
vt 1 1
vt 0 0
vt 0 1
vt 1 0
vt 1 1
vt 0 0
vt 0 1
vt 1 0
vt 1 1
vt 0 0
vt 0 1
vt 1 0
vt 1 1
vt 0 0
vt 0 1
vt 1 0
vt 1 1
vt 0 0
vt 0 1
vt 1 0
vt 1 1
vn 0 0 1
vn 0 0 1
vn 0 0 1
vn 0 0 1
vn -1 0 0
vn -1 0 0
vn -1 0 0
vn -1 0 0
vn 0 1 0
vn 0 1 0
vn 0 1 0
vn 0 1 0
vn 1 0 0
vn 1 0 0
vn 1 0 0
vn 1 0 0
vn 0 0 -1
vn 0 0 -1
vn 0 0 -1
vn 0 0 -1
vn 0 -1 0
vn 0 -1 0
vn 0 -1 0
vn 0 -1 0
f 28/28/28 26/26/26 25/25/25 27/27/27
f 32/32/32 30/30/30 29/29/29 31/31/31
f 36/36/36 34/34/34 33/33/33 35/35/35
f 40/40/40 38/38/38 37/37/37 39/39/39
f 44/44/44 42/42/42 41/41/41 43/43/43
f 48/48/48 47/47/47 45/45/45 46/46/46
g object_3
v 409.4833374023438 0 -499.1655578613281
v 409.4833374023438 0 -530.2720947265625
v 430.7667541503906 0 -499.1655578613281
v 430.7667541503906 0 -530.2720947265625
vt 0 0
vt 0 1
vt 1 0
vt 1 1
vn 0 -1 0
vn 0 -1 0
vn 0 -1 0
vn 0 -1 0
f 52/52/52 51/51/51 49/49/49 50/50/50
g object_4
v 430.7667541503906 0 -530.2720947265625
v 430.7667541503906 17 -530.2720947265625
v 409.4833374023438 0 -530.2720947265625
v 409.4833374023438 17 -530.2720947265625
vt 0 0
vt 0 1
vt 1 0
vt 1 1
vn 0 0 -1
vn 0 0 -1
vn 0 0 -1
vn 0 0 -1
f 56/56/56 54/54/54 53/53/53 55/55/55
g object_5
v 430.7667541503906 0 -499.1655578613281
v 430.7667541503906 17 -499.1655578613281
v 430.7667541503906 0 -530.2720947265625
v 430.7667541503906 17 -530.2720947265625
vt 0 0
vt 0 1
vt 1 0
vt 1 1
vn 1 0 0
vn 1 0 0
vn 1 0 0
vn 1 0 0
f 60/60/60 58/58/58 57/57/57 59/59/59
g object_6
v 409.4833374023438 17 -499.1655578613281
v 409.4833374023438 17 -530.2720947265625
v 430.7667541503906 17 -499.1655578613281
v 430.7667541503906 17 -530.2720947265625
vt 0 0
vt 0 1
vt 1 0
vt 1 1
vn 0 1 0
vn 0 1 0
vn 0 1 0
vn 0 1 0
f 64/64/64 62/62/62 61/61/61 63/63/63
g object_7
v 409.4833374023438 0 -530.2720947265625
v 409.4833374023438 17 -530.2720947265625
v 409.4833374023438 0 -499.1655578613281
v 409.4833374023438 17 -499.1655578613281
vt 0 0
vt 0 1
vt 1 0
vt 1 1
vn -1 0 0
vn -1 0 0
vn -1 0 0
vn -1 0 0
f 68/68/68 66/66/66 65/65/65 67/67/67
g object_8
v 409.4833374023438 0 -499.1655578613281
v 409.4833374023438 17 -499.1655578613281
v 430.7667541503906 0 -499.1655578613281
v 430.7667541503906 17 -499.1655578613281
vt 0 0
vt 0 1
vt 1 0
vt 1 1
vn 0 0 1
vn 0 0 1
vn 0 0 1
vn 0 0 1
f 72/72/72 70/70/70 69/69/69 71/71/71
g object_9
v 361.677490234375 0 -491.1979370117188
v 361.677490234375 0 -536.275146484375
v 396.9315795898438 0 -491.1979370117188
v 396.9315795898438 0 -536.275146484375
vt 0 0
vt 0 1
vt 1 0
vt 1 1
vn 0 -1 0
vn 0 -1 0
vn 0 -1 0
vn 0 -1 0
f 76/76/76 75/75/75 73/73/73 74/74/74
g object_10
v 396.9315795898438 0 -536.275146484375
v 396.9315795898438 36 -536.275146484375
v 361.677490234375 0 -536.275146484375
v 361.677490234375 36 -536.275146484375
vt 0 0
vt 0 1
vt 1 0
vt 1 1
vn 0 0 -1
vn 0 0 -1
vn 0 0 -1
vn 0 0 -1
f 80/80/80 78/78/78 77/77/77 79/79/79
g object_11
v 396.9315795898438 0 -491.1979370117188
v 396.9315795898438 36 -491.1979370117188
v 396.9315795898438 0 -536.275146484375
v 396.9315795898438 36 -536.275146484375
vt 0 0
vt 0 1
vt 1 0
vt 1 1
vn 1 0 0
vn 1 0 0
vn 1 0 0
vn 1 0 0
f 84/84/84 82/82/82 81/81/81 83/83/83
g object_12
v 361.677490234375 36 -491.1979370117188
v 361.677490234375 36 -536.275146484375
v 396.9315795898438 36 -491.1979370117188
v 396.9315795898438 36 -536.275146484375
vt 0 0
vt 0 1
vt 1 0
vt 1 1
vn 0 1 0
vn 0 1 0
vn 0 1 0
vn 0 1 0
f 88/88/88 86/86/86 85/85/85 87/87/87
g object_13
v 361.677490234375 0 -536.275146484375
v 361.677490234375 36 -536.275146484375
v 361.677490234375 0 -491.1979370117188
v 361.677490234375 36 -491.1979370117188
vt 0 0
vt 0 1
vt 1 0
vt 1 1
vn -1 0 0
vn -1 0 0
vn -1 0 0
vn -1 0 0
f 92/92/92 90/90/90 89/89/89 91/91/91
g object_14
v 361.677490234375 0 -491.1979370117188
v 361.677490234375 36 -491.1979370117188
v 396.9315795898438 0 -491.1979370117188
v 396.9315795898438 36 -491.1979370117188
vt 0 0
vt 0 1
vt 1 0
vt 1 1
vn 0 0 1
vn 0 0 1
vn 0 0 1
vn 0 0 1
f 96/96/96 94/94/94 93/93/93 95/95/95
g object_15
v 537.4692993164062 0 -530.2720947265625
v 537.4692993164062 17 -530.2720947265625
v 537.4692993164062 0 -499.1655578613281
v 537.4692993164062 17 -499.1655578613281
vt 0 0
vt 0 1
vt 1 0
vt 1 1
vn -1 0 0
vn -1 0 0
vn -1 0 0
vn -1 0 0
f 100/100/100 98/98/98 97/97/97 99/99/99
g object_16
v 558.7527465820312 0 -530.2720947265625
v 558.7527465820312 17 -530.2720947265625
v 537.4692993164062 0 -530.2720947265625
v 537.4692993164062 17 -530.2720947265625
vt 0 0
vt 0 1
vt 1 0
vt 1 1
vn 0 0 -1
vn 0 0 -1
vn 0 0 -1
vn 0 0 -1
f 104/104/104 102/102/102 101/101/101 103/103/103
g object_17
v 558.7527465820312 0 -499.1655578613281
v 558.7527465820312 17 -499.1655578613281
v 558.7527465820312 0 -530.2720947265625
v 558.7527465820312 17 -530.2720947265625
vt 0 0
vt 0 1
vt 1 0
vt 1 1
vn 1 0 0
vn 1 0 0
vn 1 0 0
vn 1 0 0
f 108/108/108 106/106/106 105/105/105 107/107/107
g object_18
v 537.4692993164062 0 -499.1655578613281
v 537.4692993164062 17 -499.1655578613281
v 558.7527465820312 0 -499.1655578613281
v 558.7527465820312 17 -499.1655578613281
vt 0 0
vt 0 1
vt 1 0
vt 1 1
vn 0 0 1
vn 0 0 1
vn 0 0 1
vn 0 0 1
f 112/112/112 110/110/110 109/109/109 111/111/111
g object_19
v 537.4692993164062 0 -499.1655578613281
v 537.4692993164062 0 -530.2720947265625
v 558.7527465820312 0 -499.1655578613281
v 558.7527465820312 0 -530.2720947265625
vt 0 0
vt 0 1
vt 1 0
vt 1 1
vn 0 -1 0
vn 0 -1 0
vn 0 -1 0
vn 0 -1 0
f 116/116/116 115/115/115 113/113/113 114/114/114
g object_20
v 537.4692993164062 17 -499.1655578613281
v 537.4692993164062 17 -530.2720947265625
v 558.7527465820312 17 -499.1655578613281
v 558.7527465820312 17 -530.2720947265625
vt 0 0
vt 0 1
vt 1 0
vt 1 1
vn 0 1 0
vn 0 1 0
vn 0 1 0
vn 0 1 0
f 120/120/120 118/118/118 117/117/117 119/119/119
g object_21
v 539.4339599609375 0 -587.5736694335938
v 539.4339599609375 22 -587.5736694335938
v 539.4339599609375 0 -552.7561645507812
v 539.4339599609375 22 -552.7561645507812
vt 0 0
vt 0 1
vt 1 0
vt 1 1
vn -1 0 0
vn -1 0 0
vn -1 0 0
vn -1 0 0
f 124/124/124 122/122/122 121/121/121 123/123/123
g object_22
v 566.3929443359375 0 -587.5736694335938
v 566.3929443359375 22 -587.5736694335938
v 539.4339599609375 0 -587.5736694335938
v 539.4339599609375 22 -587.5736694335938
vt 0 0
vt 0 1
vt 1 0
vt 1 1
vn 0 0 -1
vn 0 0 -1
vn 0 0 -1
vn 0 0 -1
f 128/128/128 126/126/126 125/125/125 127/127/127
g object_23
v 566.3929443359375 0 -552.7561645507812
v 566.3929443359375 22 -552.7561645507812
v 566.3929443359375 0 -587.5736694335938
v 566.3929443359375 22 -587.5736694335938
vt 0 0
vt 0 1
vt 1 0
vt 1 1
vn 1 0 0
vn 1 0 0
vn 1 0 0
vn 1 0 0
f 132/132/132 130/130/130 129/129/129 131/131/131
g object_24
v 539.4339599609375 0 -552.7561645507812
v 539.4339599609375 22 -552.7561645507812
v 566.3929443359375 0 -552.7561645507812
v 566.3929443359375 22 -552.7561645507812
vt 0 0
vt 0 1
vt 1 0
vt 1 1
vn 0 0 1
vn 0 0 1
vn 0 0 1
vn 0 0 1
f 136/136/136 134/134/134 133/133/133 135/135/135
g object_25
v 539.4339599609375 0 -552.7561645507812
v 539.4339599609375 0 -587.5736694335938
v 566.3929443359375 0 -552.7561645507812
v 566.3929443359375 0 -587.5736694335938
vt 0 0
vt 0 1
vt 1 0
vt 1 1
vn 0 -1 0
vn 0 -1 0
vn 0 -1 0
vn 0 -1 0
f 140/140/140 139/139/139 137/137/137 138/138/138
g object_26
v 539.4339599609375 22 -552.7561645507812
v 539.4339599609375 22 -587.5736694335938
v 566.3929443359375 22 -552.7561645507812
v 566.3929443359375 22 -587.5736694335938
vt 0 0
vt 0 1
vt 1 0
vt 1 1
vn 0 1 0
vn 0 1 0
vn 0 1 0
vn 0 1 0
f 144/144/144 142/142/142 141/141/141 143/143/143
g object_27
v 489.6634521484375 0 -536.275146484375
v 489.6634521484375 36 -536.275146484375
v 489.6634521484375 0 -491.1979370117188
v 489.6634521484375 36 -491.1979370117188
vt 0 0
vt 0 1
vt 1 0
vt 1 1
vn -1 0 0
vn -1 0 0
vn -1 0 0
vn -1 0 0
f 148/148/148 146/146/146 145/145/145 147/147/147
g object_28
v 524.9175415039062 0 -536.275146484375
v 524.9175415039062 36 -536.275146484375
v 489.6634521484375 0 -536.275146484375
v 489.6634521484375 36 -536.275146484375
vt 0 0
vt 0 1
vt 1 0
vt 1 1
vn 0 0 -1
vn 0 0 -1
vn 0 0 -1
vn 0 0 -1
f 152/152/152 150/150/150 149/149/149 151/151/151
g object_29
v 524.9175415039062 0 -491.1979370117188
v 524.9175415039062 36 -491.1979370117188
v 524.9175415039062 0 -536.275146484375
v 524.9175415039062 36 -536.275146484375
vt 0 0
vt 0 1
vt 1 0
vt 1 1
vn 1 0 0
vn 1 0 0
vn 1 0 0
vn 1 0 0
f 156/156/156 154/154/154 153/153/153 155/155/155
g object_30
v 489.6634521484375 0 -491.1979370117188
v 489.6634521484375 36 -491.1979370117188
v 524.9175415039062 0 -491.1979370117188
v 524.9175415039062 36 -491.1979370117188
vt 0 0
vt 0 1
vt 1 0
vt 1 1
vn 0 0 1
vn 0 0 1
vn 0 0 1
vn 0 0 1
f 160/160/160 158/158/158 157/157/157 159/159/159
g object_31
v 489.6634521484375 0 -491.1979370117188
v 489.6634521484375 0 -536.275146484375
v 524.9175415039062 0 -491.1979370117188
v 524.9175415039062 0 -536.275146484375
vt 0 0
vt 0 1
vt 1 0
vt 1 1
vn 0 -1 0
vn 0 -1 0
vn 0 -1 0
vn 0 -1 0
f 164/164/164 163/163/163 161/161/161 162/162/162
g object_32
v 489.6634521484375 36 -491.1979370117188
v 489.6634521484375 36 -536.275146484375
v 524.9175415039062 36 -491.1979370117188
v 524.9175415039062 36 -536.275146484375
vt 0 0
vt 0 1
vt 1 0
vt 1 1
vn 0 1 0
vn 0 1 0
vn 0 1 0
vn 0 1 0
f 168/168/168 166/166/166 165/165/165 167/167/167
g object_33
v 519.90478515625 0 -594.7816162109375
v 519.90478515625 12 -594.7816162109375
v 519.90478515625 0 -593.7949829101562
v 519.90478515625 12 -593.7949829101562
vt 0 0
vt 0 1
vt 1 0
vt 1 1
vn -1 0 0
vn -1 0 0
vn -1 0 0
vn -1 0 0
f 172/172/172 170/170/170 169/169/169 171/171/171
g object_34
v 529.6187744140625 0 -594.7816162109375
v 529.6187744140625 12 -594.7816162109375
v 519.90478515625 0 -594.7816162109375
v 519.90478515625 12 -594.7816162109375
vt 0 0
vt 0 1
vt 1 0
vt 1 1
vn 0 0 -1
vn 0 0 -1
vn 0 0 -1
vn 0 0 -1
f 176/176/176 174/174/174 173/173/173 175/175/175
g object_35
v 529.6187744140625 0 -573.9334716796875
v 529.6187744140625 12 -573.9334716796875
v 529.6187744140625 0 -594.7816162109375
v 529.6187744140625 12 -594.7816162109375
vt 0 0
vt 0 1
vt 1 0
vt 1 1
vn 1 0 0
vn 1 0 0
vn 1 0 0
vn 1 0 0
f 180/180/180 178/178/178 177/177/177 179/179/179
g object_36
v 521.6431884765625 0 -573.9334716796875
v 521.6431884765625 12 -573.9334716796875
v 529.6187744140625 0 -573.9334716796875
v 529.6187744140625 12 -573.9334716796875
vt 0 0
vt 0 1
vt 1 0
vt 1 1
vn 0 0 1
vn 0 0 1
vn 0 0 1
vn 0 0 1
f 184/184/184 182/182/182 181/181/181 183/183/183
g object_37
v 521.6431884765625 0 -548.0628662109375
v 521.6431884765625 12 -548.0628662109375
v 521.6431884765625 0 -573.9334716796875
v 521.6431884765625 12 -573.9334716796875
vt 0 0
vt 0 1
vt 1 0
vt 1 1
vn 1 0 0
vn 1 0 0
vn 1 0 0
vn 1 0 0
f 188/188/188 186/186/186 185/185/185 187/187/187
g object_38
v 488.4628601074219 0 -548.0628662109375
v 488.4628601074219 12 -548.0628662109375
v 521.6431884765625 0 -548.0628662109375
v 521.6431884765625 12 -548.0628662109375
vt 0 0
vt 0 1
vt 1 0
vt 1 1
vn 0 0 1
vn 0 0 1
vn 0 0 1
vn 0 0 1
f 192/192/192 190/190/190 189/189/189 191/191/191
g object_39
v 488.4628601074219 0 -593.7949829101562
v 488.4628601074219 12 -593.7949829101562
v 488.4628601074219 0 -548.0628662109375
v 488.4628601074219 12 -548.0628662109375
vt 0 0
vt 0 1
vt 1 0
vt 1 1
vn -1 0 0
vn -1 0 0
vn -1 0 0
vn -1 0 0
f 196/196/196 194/194/194 193/193/193 195/195/195
g object_40
v 519.90478515625 0 -593.7949829101562
v 519.90478515625 12 -593.7949829101562
v 488.4628601074219 0 -593.7949829101562
v 488.4628601074219 12 -593.7949829101562
vt 0 0
vt 0 1
vt 1 0
vt 1 1
vn 0 0 -1
vn 0 0 -1
vn 0 0 -1
vn 0 0 -1
f 200/200/200 198/198/198 197/197/197 199/199/199
g object_41
v 519.90478515625 0 -593.7949829101562
v 488.4628601074219 0 -593.7949829101562
v 488.4628601074219 0 -570.9288940429688
v 488.4628601074219 0 -548.0628662109375
v 521.6431884765625 0 -548.0628662109375
v 521.6431884765625 0 -573.9334716796875
v 529.6187744140625 0 -573.9334716796875
v 529.6187744140625 0 -594.7816162109375
v 519.90478515625 0 -594.7816162109375
vt 0.7587953209877014 0.9694910645484924
vt 0.009803921915590763 0.9694910645484924
vt 0.009803921915590763 0.4896475076675415
vt 0.009803921915590763 0.009803921915590763
vt 0.8002064228057861 0.009803921915590763
vt 0.8002064228057861 0.5526981353759766
vt 0.9901960492134094 0.5526981353759766
vt 0.9901960492134094 0.9901960492134094
vt 0.7587953209877014 0.9901960492134094
vn 0 -1 0
vn 0 -1 0
vn 0 -1 0
vn 0 -1 0
vn 0 -1 0
vn 0 -1 0
vn 0 -1 0
vn 0 -1 0
vn 0 -1 0
f 206/206/206 203/203/203 201/201/201
f 203/203/203 202/202/202 201/201/201
f 203/203/203 206/206/206 205/205/205 204/204/204
f 206/206/206 201/201/201 208/208/208
f 201/201/201 209/209/209 208/208/208
f 207/207/207 206/206/206 208/208/208
g object_42
v 519.90478515625 12 -593.7949829101562
v 488.4628601074219 12 -593.7949829101562
v 488.4628601074219 12 -570.9288940429688
v 488.4628601074219 12 -548.0628662109375
v 521.6431884765625 12 -548.0628662109375
v 521.6431884765625 12 -573.9334716796875
v 529.6187744140625 12 -573.9334716796875
v 529.6187744140625 12 -594.7816162109375
v 519.90478515625 12 -594.7816162109375
vt 0.7587953209877014 0.9694910645484924
vt 0.009803921915590763 0.9694910645484924
vt 0.009803921915590763 0.4896475076675415
vt 0.009803921915590763 0.009803921915590763
vt 0.8002064228057861 0.009803921915590763
vt 0.8002064228057861 0.5526981353759766
vt 0.9901960492134094 0.5526981353759766
vt 0.9901960492134094 0.9901960492134094
vt 0.7587953209877014 0.9901960492134094
vn 0 1 0
vn 0 1 0
vn 0 1 0
vn 0 1 0
vn 0 1 0
vn 0 1 0
vn 0 1 0
vn 0 1 0
vn 0 1 0
f 215/215/215 210/210/210 212/212/212
f 212/212/212 210/210/210 211/211/211
f 212/212/212 213/213/213 214/214/214 215/215/215
f 215/215/215 217/217/217 210/210/210
f 210/210/210 217/217/217 218/218/218
f 216/216/216 217/217/217 215/215/215
g object_43
v 647.8907470703125 12 -593.7949829101562
v 632.1697998046875 12 -593.7949829101562
v 616.4488525390625 12 -593.7949829101562
v 647.8907470703125 12 -594.7816162109375
v 657.604736328125 12 -594.7816162109375
v 652.7477416992188 12 -594.7816162109375
v 657.604736328125 12 -573.9334716796875
v 657.604736328125 12 -584.3575439453125
v 649.629150390625 12 -573.9334716796875
v 649.629150390625 12 -548.0628662109375
v 649.629150390625 12 -560.9981689453125
v 616.4488525390625 12 -548.0628662109375
v 633.0390014648438 12 -548.0628662109375
v 616.4488525390625 12 -570.9288940429688
v 647.8907470703125 0 -593.7949829101562
v 632.1697998046875 0 -593.7949829101562
v 616.4488525390625 0 -593.7949829101562
v 647.8907470703125 0 -594.7816162109375
v 657.604736328125 0 -594.7816162109375
v 652.7477416992188 0 -594.7816162109375
v 657.604736328125 0 -573.9334716796875
v 657.604736328125 0 -584.3575439453125
v 649.629150390625 0 -573.9334716796875
v 649.629150390625 0 -548.0628662109375
v 649.629150390625 0 -560.9981689453125
v 616.4488525390625 0 -548.0628662109375
v 633.0390014648438 0 -548.0628662109375
v 616.4488525390625 0 -570.9288940429688
v 647.8907470703125 0 -593.7949829101562
v 647.8907470703125 12 -593.7949829101562
v 616.4488525390625 0 -593.7949829101562
v 616.4488525390625 12 -593.7949829101562
v 632.1697998046875 12 -593.7949829101562
v 632.1697998046875 0 -593.7949829101562
v 647.8907470703125 6 -593.7949829101562
v 616.4488525390625 0 -593.7949829101562
v 616.4488525390625 12 -593.7949829101562
v 616.4488525390625 0 -548.0628662109375
v 616.4488525390625 12 -548.0628662109375
v 616.4488525390625 12 -570.9288940429688
v 616.4488525390625 0 -570.9288940429688
v 616.4488525390625 0 -548.0628662109375
v 616.4488525390625 12 -548.0628662109375
v 649.629150390625 0 -548.0628662109375
v 649.629150390625 12 -548.0628662109375
v 633.0390014648438 12 -548.0628662109375
v 633.0390014648438 0 -548.0628662109375
v 649.629150390625 0 -548.0628662109375
v 649.629150390625 12 -548.0628662109375
v 649.629150390625 0 -573.9334716796875
v 649.629150390625 12 -573.9334716796875
v 649.629150390625 12 -560.9981689453125
v 649.629150390625 0 -560.9981689453125
v 649.629150390625 6 -573.9334716796875
v 649.629150390625 0 -573.9334716796875
v 649.629150390625 12 -573.9334716796875
v 657.604736328125 0 -573.9334716796875
v 657.604736328125 12 -573.9334716796875
v 649.629150390625 6 -573.9334716796875
v 657.604736328125 6 -573.9334716796875
v 657.604736328125 0 -573.9334716796875
v 657.604736328125 12 -573.9334716796875
v 657.604736328125 0 -594.7816162109375
v 657.604736328125 12 -594.7816162109375
v 657.604736328125 12 -584.3575439453125
v 657.604736328125 0 -584.3575439453125
v 657.604736328125 6 -573.9334716796875
v 657.604736328125 6 -594.7816162109375
v 657.604736328125 0 -594.7816162109375
v 657.604736328125 12 -594.7816162109375
v 647.8907470703125 0 -594.7816162109375
v 647.8907470703125 12 -594.7816162109375
v 652.7477416992188 12 -594.7816162109375
v 652.7477416992188 0 -594.7816162109375
v 657.604736328125 6 -594.7816162109375
v 647.8907470703125 6 -594.7816162109375
v 647.8907470703125 0 -594.7816162109375
v 647.8907470703125 12 -594.7816162109375
v 647.8907470703125 0 -593.7949829101562
v 647.8907470703125 12 -593.7949829101562
v 647.8907470703125 6 -593.7949829101562
v 647.8907470703125 6 -594.7816162109375
vt 0.9051400423049927 0.4277414381504059
vt 0.760134220123291 0.4277414381504059
vt 0.6151283979415894 0.4277414381504059
vt 0.9051400423049927 0.436876505613327
vt 0.9947390556335449 0.436876505613327
vt 0.9499395489692688 0.436876505613327
vt 0.9947390556335449 0.2438515424728394
vt 0.9947390556335449 0.3403640389442444
vt 0.9211745262145996 0.2438515424728394
vt 0.9211745262145996 0.004325510002672672
vt 0.9211745262145996 0.1240885332226753
vt 0.6151283979415894 0.004325510002672672
vt 0.7681514620780945 0.004325510002672672
vt 0.6151283979415894 0.216033473610878
vt 0.01346060447394848 0.293807715177536
vt 0.01346060447394848 0.1488019078969955
vt 0.01346060447394848 0.003796106437221169
vt 0.004325523041188717 0.293807715177536
vt 0.004325523041188717 0.3834067285060883
vt 0.004325523041188717 0.3386072218418121
vt 0.197350487112999 0.3834067285060883
vt 0.1008379906415939 0.3834067285060883
vt 0.197350487112999 0.3098421990871429
vt 0.436876505613327 0.3098421990871429
vt 0.3171134889125824 0.3098421990871429
vt 0.436876505613327 0.003796106437221169
vt 0.436876505613327 0.1568191647529602
vt 0.2251685559749603 0.003796106437221169
vt 0 0.699077844619751
vt 0 0.8101813197135925
vt 0.2911087572574615 0.699077844619751
vt 0.2911087572574615 0.8101813197135925
vt 0.1455543786287308 0.8101813197135925
vt 0.1455543786287308 0.699077844619751
vt 0 0.7546295523643494
vt 0.6098674535751343 0.3886677026748657
vt 0.5002288818359375 0.3886677026748657
vt 0.6098674535751343 0.8106187582015991
vt 0.5002288818359375 0.8106187582015991
vt 0.5002288818359375 0.5996432304382324
vt 0.6098674535751343 0.5996432304382324
vt 0 0.4730663597583771
vt 0 0.5841698050498962
vt 0.3057390749454498 0.4730663597583771
vt 0.3057390749454498 0.5841698050498962
vt 0.1528695374727249 0.5841698050498962
vt 0.1528695374727249 0.4730663597583771
vt 0 0.5860721468925476
vt 0 0.6971755623817444
vt 0.2395260334014893 0.5860721468925476
vt 0.2395260334014893 0.6971755623817444
vt 0.1197630167007446 0.6971755623817444
vt 0.1197630167007446 0.5860721468925476
vt 0.2395260334014893 0.641623854637146
vt 0.1111034229397774 0.3979591727256775
vt 0 0.3979591727256775
vt 0.1111034229397774 0.4716015160083771
vt 0 0.4716015160083771
vt 0.05555171146988869 0.3979591727256775
vt 0.05555171146988869 0.4716015160083771
vt 0.3072039186954498 0.5780872702598572
vt 0.3072039186954498 0.689190685749054
vt 0.4987640380859375 0.5780872702598572
vt 0.4987640380859375 0.689190685749054
vt 0.4029839634895325 0.689190685749054
vt 0.4029839634895325 0.5780872702598572
vt 0.3072039186954498 0.6336389780044556
vt 0.4987640380859375 0.6336389780044556
vt 0.4183073341846466 0.3886677026748657
vt 0.3072039186954498 0.3886677026748657
vt 0.4183073341846466 0.4786056876182556
vt 0.3072039186954498 0.4786056876182556
vt 0.3072039186954498 0.4336366951465607
vt 0.4183073341846466 0.4336366951465607
vt 0.3627556264400482 0.3886677026748657
vt 0.3627556264400482 0.4786056876182556
vt 0.1111034229397774 0.3886677026748657
vt 0 0.3886677026748657
vt 0.1111034229397774 0.3964943289756775
vt 0 0.3964943289756775
vt 0.05555171146988869 0.3964943289756775
vt 0.05555171146988869 0.3886677026748657
vn 0 1 0
vn 0 1 0
vn 0 1 0
vn 0 1 0
vn 0 1 0
vn 0 1 0
vn 0 1 0
vn 0 1 0
vn 0 1 0
vn 0 1 0
vn 0 1 0
vn 0 1 0
vn 0 1 0
vn 0 1 0
vn 0 -1 0
vn 0 -1 0
vn 0 -1 0
vn 0 -1 0
vn 0 -1 0
vn 0 -1 0
vn 0 -1 0
vn 0 -1 0
vn 0 -1 0
vn 0 -1 0
vn 0 -1 0
vn 0 -1 0
vn 0 -1 0
vn 0 -1 0
vn 0 0 -1
vn 0 0 -1
vn 0 0 -1
vn 0 0 -1
vn 0 0 -1
vn 0 0 -1
vn 0 0 -1
vn -1 0 0
vn -1 0 0
vn -1 0 0
vn -1 0 0
vn -1 0 0
vn -1 0 0
vn 0 0 1
vn 0 0 1
vn 0 0 1
vn 0 0 1
vn 0 0 1
vn 0 0 1
vn 1 0 0
vn 1 0 0
vn 1 0 0
vn 1 0 0
vn 1 0 0
vn 1 0 0
vn 1 0 0
vn 0 0 1
vn 0 0 1
vn 0 0 1
vn 0 0 1
vn 0 0 1
vn 0 0 1
vn 1 0 0
vn 1 0 0
vn 1 0 0
vn 1 0 0
vn 1 0 0
vn 1 0 0
vn 1 0 0
vn 1 0 0
vn 0 0 -1
vn 0 0 -1
vn 0 0 -1
vn 0 0 -1
vn 0 0 -1
vn 0 0 -1
vn 0 0 -1
vn 0 0 -1
vn -1 0 0
vn -1 0 0
vn -1 0 0
vn -1 0 0
vn -1 0 0
vn -1 0 0
f 232/232/232 230/230/230 231/231/231
f 227/227/227 220/220/220 232/232/232
f 232/232/232 220/220/220 221/221/221
f 224/224/224 222/222/222 219/219/219
f 227/227/227 219/219/219 220/220/220
f 231/231/231 227/227/227 232/232/232
f 231/231/231 228/228/228 229/229/229
f 231/231/231 229/229/229 227/227/227
f 219/219/219 226/226/226 224/224/224
f 225/225/225 226/226/226 227/227/227
f 224/224/224 226/226/226 223/223/223
f 227/227/227 226/226/226 219/219/219
f 246/246/246 245/245/245 244/244/244
f 241/241/241 246/246/246 234/234/234
f 246/246/246 235/235/235 234/234/234
f 238/238/238 233/233/233 236/236/236
f 241/241/241 234/234/234 233/233/233
f 245/245/245 246/246/246 241/241/241
f 245/245/245 243/243/243 242/242/242
f 245/245/245 241/241/241 243/243/243
f 233/233/233 238/238/238 240/240/240
f 239/239/239 241/241/241 240/240/240
f 238/238/238 237/237/237 240/240/240
f 241/241/241 233/233/233 240/240/240
f 252/252/252 253/253/253 247/247/247
f 251/251/251 248/248/248 253/253/253
f 252/252/252 249/249/249 250/250/250 251/251/251
f 253/253/253 252/252/252 251/251/251
f 255/255/255 254/254/254 259/259/259 258/258/258
f 256/256/256 257/257/257 258/258/258 259/259/259
f 261/261/261 260/260/260 265/265/265 264/264/264
f 262/262/262 263/263/263 264/264/264 265/265/265
f 267/267/267 266/266/266 271/271/271 270/270/270
f 271/271/271 272/272/272 270/270/270
f 272/272/272 269/269/269 270/270/270
f 268/268/268 272/272/272 271/271/271
f 277/277/277 273/273/273 275/275/275 278/278/278
f 274/274/274 277/277/277 278/278/278 276/276/276
f 285/285/285 279/279/279 284/284/284
f 285/285/285 283/283/283 280/280/280
f 283/283/283 285/285/285 284/284/284
f 284/284/284 286/286/286 283/283/283
f 286/286/286 282/282/282 283/283/283
f 281/281/281 286/286/286 284/284/284
f 293/293/293 287/287/287 292/292/292
f 293/293/293 291/291/291 288/288/288
f 294/294/294 293/293/293 292/292/292
f 293/293/293 294/294/294 291/291/291
f 294/294/294 290/290/290 291/291/291
f 289/289/289 294/294/294 292/292/292
f 300/300/300 295/295/295 297/297/297 299/299/299
f 296/296/296 300/300/300 299/299/299 298/298/298
g object_44
v 617.6494140625 36 -491.1979370117188
v 617.6494140625 36 -536.275146484375
v 652.9035034179688 36 -491.1979370117188
v 652.9035034179688 36 -536.275146484375
v 635.2764892578125 36 -491.1979370117188
v 617.6494140625 36 -513.7365112304688
v 635.2764892578125 36 -536.275146484375
v 652.9035034179688 36 -513.7365112304688
v 617.6494140625 0 -491.1979370117188
v 617.6494140625 0 -536.275146484375
v 652.9035034179688 0 -491.1979370117188
v 652.9035034179688 0 -536.275146484375
v 635.2764892578125 0 -491.1979370117188
v 617.6494140625 0 -513.7365112304688
v 635.2764892578125 0 -536.275146484375
v 652.9035034179688 0 -513.7365112304688
v 617.6494140625 0 -491.1979370117188
v 617.6494140625 36 -491.1979370117188
v 652.9035034179688 0 -491.1979370117188
v 652.9035034179688 36 -491.1979370117188
v 635.2764892578125 36 -491.1979370117188
v 635.2764892578125 0 -491.1979370117188
v 652.9035034179688 18 -491.1979370117188
v 617.6494140625 18 -491.1979370117188
v 652.9035034179688 0 -491.1979370117188
v 652.9035034179688 36 -491.1979370117188
v 652.9035034179688 0 -536.275146484375
v 652.9035034179688 36 -536.275146484375
v 652.9035034179688 36 -513.7365112304688
v 652.9035034179688 0 -513.7365112304688
v 652.9035034179688 18 -491.1979370117188
v 652.9035034179688 18 -536.275146484375
v 652.9035034179688 0 -536.275146484375
v 652.9035034179688 36 -536.275146484375
v 617.6494140625 0 -536.275146484375
v 617.6494140625 36 -536.275146484375
v 635.2764892578125 36 -536.275146484375
v 635.2764892578125 0 -536.275146484375
v 652.9035034179688 18 -536.275146484375
v 617.6494140625 18 -536.275146484375
v 617.6494140625 0 -536.275146484375
v 617.6494140625 36 -536.275146484375
v 617.6494140625 0 -491.1979370117188
v 617.6494140625 36 -491.1979370117188
v 617.6494140625 36 -513.7365112304688
v 617.6494140625 0 -513.7365112304688
v 617.6494140625 18 -491.1979370117188
v 617.6494140625 18 -536.275146484375
vt 0.99853515625 0.4548629820346832
vt 0.6149787902832031 0.4548629820346832
vt 0.99853515625 0.7559812664985657
vt 0.6149787902832031 0.7559812664985657
vt 0.99853515625 0.6054221391677856
vt 0.8067569732666016 0.4548629820346832
vt 0.6149787902832031 0.6054221391677856
vt 0.8067569732666016 0.7559812664985657
vt 0.99853515625 0
vt 0.6149787902832031 0
vt 0.99853515625 0.3011182844638824
vt 0.6149787902832031 0.3011182844638824
vt 0.99853515625 0.1505591422319412
vt 0.8067569732666016 0
vt 0.6149787902832031 0.1505591422319412
vt 0.8067569732666016 0.3011182844638824
vt 0.6135139465332031 0.6086076498031616
vt 0.3074893951416016 0.6086076498031616
vt 0.6135139465332031 0.9082611203193665
vt 0.3074893951416016 0.9082611203193665
vt 0.3074893951416016 0.7584344148635864
vt 0.6135139465332031 0.7584344148635864
vt 0.4605016708374023 0.9082611203193665
vt 0.4605016708374023 0.6086076498031616
vt 0.3060245513916016 0.3074893951416016
vt 0 0.3074893951416016
vt 0.3060245513916016 0.6925106048583984
vt 0 0.6925106048583984
vt 0 0.5
vt 0.3060245513916016 0.5
vt 0.1530122756958008 0.3074893951416016
vt 0.1530122756958008 0.6925106048583984
vt 0.6135139465332031 0.3074893951416016
vt 0.3074893951416016 0.3074893951416016
vt 0.6135139465332031 0.6071428060531616
vt 0.3074893951416016 0.6071428060531616
vt 0.3074893951416016 0.4573161005973816
vt 0.6135139465332031 0.4573161005973816
vt 0.4605016708374023 0.3074893951416016
vt 0.4605016708374023 0.6071428060531616
vt 0 0
vt 0 0.3060245513916016
vt 0.3850212097167969 0
vt 0.3850212097167969 0.3060245513916016
vt 0.1925106048583984 0.3060245513916016
vt 0.1925106048583984 0
vt 0.3850212097167969 0.1530122756958008
vt 0 0.1530122756958008
vn 0 1 0
vn 0 1 0
vn 0 1 0
vn 0 1 0
vn 0 1 0
vn 0 1 0
vn 0 1 0
vn 0 1 0
vn 0 -1 0
vn 0 -1 0
vn 0 -1 0
vn 0 -1 0
vn 0 -1 0
vn 0 -1 0
vn 0 -1 0
vn 0 -1 0
vn 0 0 1
vn 0 0 1
vn 0 0 1
vn 0 0 1
vn 0 0 1
vn 0 0 1
vn 0 0 1
vn 0 0 1
vn 1 0 0
vn 1 0 0
vn 1 0 0
vn 1 0 0
vn 1 0 0
vn 1 0 0
vn 1 0 0
vn 1 0 0
vn 0 0 -1
vn 0 0 -1
vn 0 0 -1
vn 0 0 -1
vn 0 0 -1
vn 0 0 -1
vn 0 0 -1
vn 0 0 -1
vn -1 0 0
vn -1 0 0
vn -1 0 0
vn -1 0 0
vn -1 0 0
vn -1 0 0
vn -1 0 0
vn -1 0 0
f 306/306/306 301/301/301 305/305/305
f 306/306/306 307/307/307 302/302/302
f 307/307/307 306/306/306 305/305/305
f 307/307/307 305/305/305 303/303/303 308/308/308
f 308/308/308 304/304/304 307/307/307
f 314/314/314 313/313/313 309/309/309
f 314/314/314 310/310/310 315/315/315
f 315/315/315 313/313/313 314/314/314
f 315/315/315 316/316/316 311/311/311 313/313/313
f 316/316/316 315/315/315 312/312/312
f 324/324/324 317/317/317 322/322/322
f 324/324/324 321/321/321 318/318/318
f 323/323/323 324/324/324 322/322/322
f 324/324/324 323/323/323 321/321/321
f 323/323/323 320/320/320 321/321/321
f 319/319/319 323/323/323 322/322/322
f 331/331/331 325/325/325 330/330/330
f 331/331/331 329/329/329 326/326/326
f 332/332/332 331/331/331 330/330/330
f 331/331/331 332/332/332 329/329/329
f 332/332/332 328/328/328 329/329/329
f 327/327/327 332/332/332 330/330/330
f 339/339/339 333/333/333 338/338/338
f 339/339/339 337/337/337 334/334/334
f 340/340/340 339/339/339 338/338/338
f 339/339/339 340/340/340 337/337/337
f 340/340/340 336/336/336 337/337/337
f 335/335/335 340/340/340 338/338/338
f 348/348/348 341/341/341 346/346/346
f 348/348/348 345/345/345 342/342/342
f 347/347/347 348/348/348 346/346/346
f 348/348/348 347/347/347 345/345/345
f 347/347/347 344/344/344 345/345/345
f 343/343/343 347/347/347 346/346/346
g object_45
v 667.419921875 22 -552.7561645507812
v 667.419921875 22 -587.5736694335938
v 694.37890625 22 -552.7561645507812
v 694.37890625 22 -587.5736694335938
v 680.8994140625 22 -552.7561645507812
v 667.419921875 22 -570.1649169921875
v 680.8994140625 22 -587.5736694335938
v 694.37890625 22 -570.1649169921875
v 667.419921875 0 -552.7561645507812
v 667.419921875 0 -587.5736694335938
v 694.37890625 0 -552.7561645507812
v 694.37890625 0 -587.5736694335938
v 680.8994140625 0 -552.7561645507812
v 667.419921875 0 -570.1649169921875
v 680.8994140625 0 -587.5736694335938
v 694.37890625 0 -570.1649169921875
v 667.419921875 0 -552.7561645507812
v 667.419921875 22 -552.7561645507812
v 694.37890625 0 -552.7561645507812
v 694.37890625 22 -552.7561645507812
v 680.8994140625 22 -552.7561645507812
v 680.8994140625 0 -552.7561645507812
v 694.37890625 11 -552.7561645507812
v 667.419921875 11 -552.7561645507812
v 694.37890625 0 -552.7561645507812
v 694.37890625 22 -552.7561645507812
v 694.37890625 0 -587.5736694335938
v 694.37890625 22 -587.5736694335938
v 694.37890625 22 -570.1649169921875
v 694.37890625 0 -570.1649169921875
v 694.37890625 11 -552.7561645507812
v 694.37890625 11 -587.5736694335938
v 694.37890625 0 -587.5736694335938
v 694.37890625 22 -587.5736694335938
v 667.419921875 0 -587.5736694335938
v 667.419921875 22 -587.5736694335938
v 680.8994140625 22 -587.5736694335938
v 680.8994140625 0 -587.5736694335938
v 694.37890625 11 -587.5736694335938
v 667.419921875 11 -587.5736694335938
v 667.419921875 0 -587.5736694335938
v 667.419921875 22 -587.5736694335938
v 667.419921875 0 -552.7561645507812
v 667.419921875 22 -552.7561645507812
v 667.419921875 22 -570.1649169921875
v 667.419921875 0 -570.1649169921875
v 667.419921875 11 -552.7561645507812
v 667.419921875 11 -587.5736694335938
vt 0.3333333432674408 0.4304993152618408
vt 0.3333333432674408 0.8595337867736816
vt 0.6652018427848816 0.4304993152618408
vt 0.6652018427848816 0.8595337867736816
vt 0.499267578125 0.4304993152618408
vt 0.3333333432674408 0.6450165510177612
vt 0.499267578125 0.8595337867736816
vt 0.6652018427848816 0.6450165510177612
vt 0 0.4304993152618408
vt 0 0.8595337867736816
vt 0.3318684995174408 0.4304993152618408
vt 0.3318684995174408 0.8595337867736816
vt 0.1659342497587204 0.4304993152618408
vt 0 0.6450165510177612
vt 0.1659342497587204 0.8595337867736816
vt 0.3318684995174408 0.6450165510177612
vt 0.6666666865348816 0.4304993152618408
vt 0.6666666865348816 0.7025172114372253
vt 0.99853515625 0.4304993152618408
vt 0.99853515625 0.7025172114372253
vt 0.8326008915901184 0.7025172114372253
vt 0.8326008915901184 0.4304993152618408
vt 0.99853515625 0.5665082931518555
vt 0.6666666865348816 0.5665082931518555
vt 0.6053512692451477 0
vt 0.3333333432674408 0
vt 0.6053512692451477 0.4290344715118408
vt 0.3333333432674408 0.4290344715118408
vt 0.3333333432674408 0.2145172357559204
vt 0.6053512692451477 0.2145172357559204
vt 0.4693422913551331 0
vt 0.4693422913551331 0.4290344715118408
vt 0.6666666865348816 0
vt 0.6666666865348816 0.2720179259777069
vt 0.99853515625 0
vt 0.99853515625 0.2720179259777069
vt 0.8326008915901184 0.2720179259777069
vt 0.8326008915901184 0
vt 0.6666666865348816 0.1360089629888535
vt 0.99853515625 0.1360089629888535
vt 0.2720179259777069 0
vt 0 0
vt 0.2720179259777069 0.4290344715118408
vt 0 0.4290344715118408
vt 0 0.2145172357559204
vt 0.2720179259777069 0.2145172357559204
vt 0.1360089629888535 0.4290344715118408
vt 0.1360089629888535 0
vn 0 1 0
vn 0 1 0
vn 0 1 0
vn 0 1 0
vn 0 1 0
vn 0 1 0
vn 0 1 0
vn 0 1 0
vn 0 -1 0
vn 0 -1 0
vn 0 -1 0
vn 0 -1 0
vn 0 -1 0
vn 0 -1 0
vn 0 -1 0
vn 0 -1 0
vn 0 0 1
vn 0 0 1
vn 0 0 1
vn 0 0 1
vn 0 0 1
vn 0 0 1
vn 0 0 1
vn 0 0 1
vn 1 0 0
vn 1 0 0
vn 1 0 0
vn 1 0 0
vn 1 0 0
vn 1 0 0
vn 1 0 0
vn 1 0 0
vn 0 0 -1
vn 0 0 -1
vn 0 0 -1
vn 0 0 -1
vn 0 0 -1
vn 0 0 -1
vn 0 0 -1
vn 0 0 -1
vn -1 0 0
vn -1 0 0
vn -1 0 0
vn -1 0 0
vn -1 0 0
vn -1 0 0
vn -1 0 0
vn -1 0 0
f 354/354/354 349/349/349 353/353/353
f 354/354/354 355/355/355 350/350/350
f 356/356/356 354/354/354 353/353/353 351/351/351
f 354/354/354 356/356/356 352/352/352 355/355/355
f 362/362/362 361/361/361 357/357/357
f 362/362/362 358/358/358 363/363/363
f 364/364/364 359/359/359 361/361/361 362/362/362
f 362/362/362 363/363/363 360/360/360 364/364/364
f 372/372/372 365/365/365 370/370/370
f 372/372/372 369/369/369 366/366/366
f 371/371/371 372/372/372 370/370/370 367/367/367
f 372/372/372 371/371/371 368/368/368 369/369/369
f 379/379/379 373/373/373 378/378/378
f 379/379/379 377/377/377 374/374/374
f 380/380/380 379/379/379 378/378/378
f 379/379/379 380/380/380 377/377/377
f 380/380/380 376/376/376 377/377/377
f 375/375/375 380/380/380 378/378/378
f 387/387/387 381/381/381 386/386/386
f 387/387/387 385/385/385 382/382/382
f 388/388/388 387/387/387 386/386/386
f 387/387/387 388/388/388 385/385/385
f 388/388/388 384/384/384 385/385/385
f 383/383/383 388/388/388 386/386/386
f 396/396/396 389/389/389 394/394/394
f 396/396/396 393/393/393 390/390/390
f 395/395/395 396/396/396 394/394/394
f 396/396/396 395/395/395 393/393/393
f 395/395/395 392/392/392 393/393/393
f 391/391/391 395/395/395 394/394/394
g object_46
v 665.4552612304688 17 -499.1655578613281
v 665.4552612304688 17 -530.2720947265625
v 686.7387084960938 17 -499.1655578613281
v 686.7387084960938 17 -530.2720947265625
v 676.0969848632812 17 -499.1655578613281
v 665.4552612304688 17 -514.7188720703125
v 676.0969848632812 17 -530.2720947265625
v 686.7387084960938 17 -514.7188720703125
v 665.4552612304688 0 -499.1655578613281
v 665.4552612304688 0 -530.2720947265625
v 686.7387084960938 0 -499.1655578613281
v 686.7387084960938 0 -530.2720947265625
v 676.0969848632812 0 -499.1655578613281
v 665.4552612304688 0 -514.7188720703125
v 676.0969848632812 0 -530.2720947265625
v 686.7387084960938 0 -514.7188720703125
v 665.4552612304688 0 -499.1655578613281
v 665.4552612304688 17 -499.1655578613281
v 686.7387084960938 0 -499.1655578613281
v 686.7387084960938 17 -499.1655578613281
v 676.0969848632812 17 -499.1655578613281
v 676.0969848632812 0 -499.1655578613281
v 686.7387084960938 8.5 -499.1655578613281
v 665.4552612304688 8.5 -499.1655578613281
v 686.7387084960938 0 -499.1655578613281
v 686.7387084960938 17 -499.1655578613281
v 686.7387084960938 0 -530.2720947265625
v 686.7387084960938 17 -530.2720947265625
v 686.7387084960938 17 -514.7188720703125
v 686.7387084960938 0 -514.7188720703125
v 686.7387084960938 8.5 -499.1655578613281
v 686.7387084960938 8.5 -530.2720947265625
v 686.7387084960938 0 -530.2720947265625
v 686.7387084960938 17 -530.2720947265625
v 665.4552612304688 0 -530.2720947265625
v 665.4552612304688 17 -530.2720947265625
v 676.0969848632812 17 -530.2720947265625
v 676.0969848632812 0 -530.2720947265625
v 686.7387084960938 8.5 -530.2720947265625
v 665.4552612304688 8.5 -530.2720947265625
v 665.4552612304688 0 -530.2720947265625
v 665.4552612304688 17 -530.2720947265625
v 665.4552612304688 0 -499.1655578613281
v 665.4552612304688 17 -499.1655578613281
v 665.4552612304688 17 -514.7188720703125
v 665.4552612304688 0 -514.7188720703125
v 665.4552612304688 8.5 -499.1655578613281
v 665.4552612304688 8.5 -530.2720947265625
vt 0.3333333432674408 0.4871794879436493
vt 0.3333333432674408 0.9728941321372986
vt 0.6652018427848816 0.4871794879436493
vt 0.6652018427848816 0.9728941321372986
vt 0.499267578125 0.4871794879436493
vt 0.3333333432674408 0.7300367951393127
vt 0.499267578125 0.9728941321372986
vt 0.6652018427848816 0.7300367951393127
vt 0 0.4871794879436493
vt 0 0.9728941321372986
vt 0.3318684995174408 0.4871794879436493
vt 0.3318684995174408 0.9728941321372986
vt 0.1659342497587204 0.4871794879436493
vt 0 0.7300367951393127
vt 0.1659342497587204 0.9728941321372986
vt 0.3318684995174408 0.7300367951393127
vt 0.6666666865348816 0.4871794879436493
vt 0.6666666865348816 0.7534273266792297
vt 0.99853515625 0.4871794879436493
vt 0.99853515625 0.7534273266792297
vt 0.8326008915901184 0.7534273266792297
vt 0.8326008915901184 0.4871794879436493
vt 0.99853515625 0.6203033924102783
vt 0.6666666865348816 0.6203033924102783
vt 0.5995811820030212 0
vt 0.3333333432674408 0
vt 0.5995811820030212 0.4857146441936493
vt 0.3333333432674408 0.4857146441936493
vt 0.3333333432674408 0.2428573220968246
vt 0.5995811820030212 0.2428573220968246
vt 0.4664572477340698 0
vt 0.4664572477340698 0.4857146441936493
vt 0.6666666865348816 0
vt 0.6666666865348816 0.2662478387355804
vt 0.99853515625 0
vt 0.99853515625 0.2662478387355804
vt 0.8326008915901184 0.2662478387355804
vt 0.8326008915901184 0
vt 0.6666666865348816 0.1331239193677902
vt 0.99853515625 0.1331239193677902
vt 0.2662478387355804 0
vt 0 0
vt 0.2662478387355804 0.4857146441936493
vt 0 0.4857146441936493
vt 0 0.2428573220968246
vt 0.2662478387355804 0.2428573220968246
vt 0.1331239193677902 0.4857146441936493
vt 0.1331239193677902 0
vn 0 1 0
vn 0 1 0
vn 0 1 0
vn 0 1 0
vn 0 1 0
vn 0 1 0
vn 0 1 0
vn 0 1 0
vn 0 -1 0
vn 0 -1 0
vn 0 -1 0
vn 0 -1 0
vn 0 -1 0
vn 0 -1 0
vn 0 -1 0
vn 0 -1 0
vn 0 0 1
vn 0 0 1
vn 0 0 1
vn 0 0 1
vn 0 0 1
vn 0 0 1
vn 0 0 1
vn 0 0 1
vn 1 0 0
vn 1 0 0
vn 1 0 0
vn 1 0 0
vn 1 0 0
vn 1 0 0
vn 1 0 0
vn 1 0 0
vn 0 0 -1
vn 0 0 -1
vn 0 0 -1
vn 0 0 -1
vn 0 0 -1
vn 0 0 -1
vn 0 0 -1
vn 0 0 -1
vn -1 0 0
vn -1 0 0
vn -1 0 0
vn -1 0 0
vn -1 0 0
vn -1 0 0
vn -1 0 0
vn -1 0 0
f 402/402/402 397/397/397 401/401/401
f 402/402/402 403/403/403 398/398/398
f 404/404/404 402/402/402 401/401/401
f 402/402/402 404/404/404 403/403/403
f 404/404/404 400/400/400 403/403/403
f 399/399/399 404/404/404 401/401/401
f 410/410/410 409/409/409 405/405/405
f 410/410/410 406/406/406 411/411/411
f 412/412/412 409/409/409 410/410/410
f 410/410/410 411/411/411 412/412/412
f 412/412/412 411/411/411 408/408/408
f 407/407/407 409/409/409 412/412/412
f 420/420/420 413/413/413 418/418/418
f 420/420/420 417/417/417 414/414/414
f 419/419/419 420/420/420 418/418/418
f 420/420/420 419/419/419 417/417/417
f 419/419/419 416/416/416 417/417/417
f 415/415/415 419/419/419 418/418/418
f 427/427/427 421/421/421 426/426/426
f 427/427/427 425/425/425 422/422/422
f 428/428/428 427/427/427 426/426/426
f 427/427/427 428/428/428 425/425/425
f 428/428/428 424/424/424 425/425/425
f 423/423/423 428/428/428 426/426/426
f 435/435/435 429/429/429 434/434/434
f 435/435/435 433/433/433 430/430/430
f 436/436/436 435/435/435 434/434/434 431/431/431
f 435/435/435 436/436/436 432/432/432 433/433/433
f 444/444/444 437/437/437 442/442/442
f 444/444/444 441/441/441 438/438/438
f 443/443/443 444/444/444 442/442/442 439/439/439
f 444/444/444 443/443/443 440/440/440 441/441/441
